{
    "asset" : {
        "generator" : "Khronos glTF Blender I/O v1.1.46",
        "version" : "2.0"
    },
    "scene" : 0,
    "scenes" : [
        {
            "name" : "Scene",
            "nodes" : [
                0,
                1,
                2,
                3,
                4,
                5
            ]
        }
    ],
    "nodes" : [
        {
            "name" : "Light",
            "rotation" : [
                0.16907575726509094,
                0.7558803558349609,
                -0.27217137813568115,
                0.570947527885437
            ],
            "translation" : [
                4.076245307922363,
                5.903861999511719,
                -1.0054539442062378
            ]
        },
        {
            "name" : "Camera",
            "rotation" : [
                0.483536034822464,
                0.33687159419059753,
                -0.20870360732078552,
                0.7804827094078064
            ],
            "translation" : [
                7.358891487121582,
                4.958309173583984,
                6.925790786743164
            ]
        },
        {
            "name" : "Default light",
            "rotation" : [
                0.7071068286895752,
                0,
                0,
                0.7071067094802856
            ]
        },
        {
            "mesh" : 0,
            "name" : "Ring",
            "rotation" : [
                0,
                -0.7071059942245483,
                -0.7071075439453125,
                2.1389831772467005e-07
            ],
            "scale" : [
                -1,
                -1.0000001192092896,
                -1.0000001192092896
            ],
            "translation" : [
                0.011354907415807247,
                0.013218928128480911,
                0.032308246940374374
            ]
        },
        {
            "mesh" : 1,
            "name" : "Gem_bottom",
            "rotation" : [
                -0.6656540632247925,
                0.3249180316925049,
                -0.2946924567222595,
                0.6037295460700989
            ],
            "scale" : [
                -0.017906082794070244,
                -0.01790609024465084,
                -0.017906079068779945
            ],
            "translation" : [
                0.019721347838640213,
                0.01988440565764904,
                0.031660325825214386
            ]
        },
        {
            "mesh" : 2,
            "name" : "Gem_top",
            "rotation" : [
                0,
                0.7407207489013672,
                -0.6718130707740784,
                -2.9728036565757066e-07
            ],
            "scale" : [
                0.017906077206134796,
                0.017906084656715393,
                0.01790608838200569
            ],
            "translation" : [
                0.011361930519342422,
                0.0240190327167511,
                0.032968033105134964
            ]
        }
    ],
    "materials" : [
        {
            "emissiveFactor" : [
                0,
                0,
                0
            ],
            "name" : "chrome",
            "normalTexture" : {
                "index" : 0,
                "scale" : 0.23000000417232513,
                "texCoord" : 0
            },
            "pbrMetallicRoughness" : {
                "baseColorTexture" : {
                    "index" : 1,
                    "texCoord" : 0
                },
                "metallicFactor" : 1,
                "roughnessFactor" : 0.07999999821186066
            }
        },
        {
            "emissiveFactor" : [
                0.14799802005290985,
                0.2233104109764099,
                0.3586539030075073
            ],
            "name" : "gem_bottom",
            "pbrMetallicRoughness" : {
                "baseColorFactor" : [
                    1,
                    1,
                    1,
                    1
                ],
                "metallicFactor" : 1,
                "roughnessFactor" : 0.3799999952316284
            }
        },
        {
            "alphaMode" : "BLEND",
            "doubleSided" : true,
            "emissiveFactor" : [
                0.21576440334320068,
                0.16364067792892456,
                0.2233104109764099
            ],
            "name" : "gem_top",
            "pbrMetallicRoughness" : {
                "baseColorFactor" : [
                    1,
                    1,
                    1,
                    0.27000001072883606
                ],
                "metallicFactor" : 1,
                "roughnessFactor" : 0
            }
        }
    ],
    "meshes" : [
        {
            "name" : "Mesh_0",
            "primitives" : [
                {
                    "attributes" : {
                        "POSITION" : 0,
                        "NORMAL" : 1,
                        "TANGENT" : 2,
                        "TEXCOORD_0" : 3
                    },
                    "indices" : 4,
                    "material" : 0
                }
            ]
        },
        {
            "name" : "Mesh_1",
            "primitives" : [
                {
                    "attributes" : {
                        "POSITION" : 5,
                        "NORMAL" : 6
                    },
                    "indices" : 7,
                    "material" : 1
                }
            ]
        },
        {
            "name" : "Mesh_2",
            "primitives" : [
                {
                    "attributes" : {
                        "POSITION" : 8,
                        "NORMAL" : 9
                    },
                    "indices" : 10,
                    "material" : 2
                }
            ]
        }
    ],
    "textures" : [
        {
            "source" : 0
        },
        {
            "source" : 1
        }
    ],
    "images" : [
        {
            "bufferView" : 5,
            "mimeType" : "image/png",
            "name" : "Image_1"
        },
        {
            "bufferView" : 6,
            "mimeType" : "image/png",
            "name" : "Image_0"
        }
    ],
    "accessors" : [
        {
            "bufferView" : 0,
            "componentType" : 5126,
            "count" : 3570,
            "max" : [
                0.011439056135714054,
                0.0014188013738021255,
                0.011263251304626465
            ],
            "min" : [
                -0.011439060792326927,
                -0.0014187890337780118,
                -0.011263256892561913
            ],
            "type" : "VEC3"
        },
        {
            "bufferView" : 1,
            "componentType" : 5126,
            "count" : 3570,
            "type" : "VEC3"
        },
        {
            "bufferView" : 2,
            "componentType" : 5126,
            "count" : 3570,
            "type" : "VEC4"
        },
        {
            "bufferView" : 3,
            "componentType" : 5126,
            "count" : 3570,
            "type" : "VEC2"
        },
        {
            "bufferView" : 4,
            "componentType" : 5123,
            "count" : 3570,
            "type" : "SCALAR"
        },
        {
            "bufferView" : 7,
            "componentType" : 5126,
            "count" : 3264,
            "max" : [
                0.6218184232711792,
                0.10550760477781296,
                0.7735869884490967
            ],
            "min" : [
                -0.028312383219599724,
                -0.10276482254266739,
                -0.026049116626381874
            ],
            "type" : "VEC3"
        },
        {
            "bufferView" : 8,
            "componentType" : 5126,
            "count" : 3264,
            "type" : "VEC3"
        },
        {
            "bufferView" : 9,
            "componentType" : 5123,
            "count" : 3264,
            "type" : "SCALAR"
        },
        {
            "bufferView" : 10,
            "componentType" : 5126,
            "count" : 4692,
            "max" : [
                0.5048555135726929,
                0.10550760477781296,
                0.24351170659065247
            ],
            "min" : [
                -0.5048556923866272,
                -0.05165563523769379,
                -0.03445563465356827
            ],
            "type" : "VEC3"
        },
        {
            "bufferView" : 11,
            "componentType" : 5126,
            "count" : 4692,
            "type" : "VEC3"
        },
        {
            "bufferView" : 12,
            "componentType" : 5123,
            "count" : 4692,
            "type" : "SCALAR"
        }
    ],
    "bufferViews" : [
        {
            "buffer" : 0,
            "byteLength" : 42840,
            "byteOffset" : 0
        },
        {
            "buffer" : 0,
            "byteLength" : 42840,
            "byteOffset" : 42840
        },
        {
            "buffer" : 0,
            "byteLength" : 57120,
            "byteOffset" : 85680
        },
        {
            "buffer" : 0,
            "byteLength" : 28560,
            "byteOffset" : 142800
        },
        {
            "buffer" : 0,
            "byteLength" : 7140,
            "byteOffset" : 171360
        },
        {
            "buffer" : 0,
            "byteLength" : 1580358,
            "byteOffset" : 178500
        },
        {
            "buffer" : 0,
            "byteLength" : 762074,
            "byteOffset" : 1758860
        },
        {
            "buffer" : 0,
            "byteLength" : 39168,
            "byteOffset" : 2520936
        },
        {
            "buffer" : 0,
            "byteLength" : 39168,
            "byteOffset" : 2560104
        },
        {
            "buffer" : 0,
            "byteLength" : 6528,
            "byteOffset" : 2599272
        },
        {
            "buffer" : 0,
            "byteLength" : 56304,
            "byteOffset" : 2605800
        },
        {
            "buffer" : 0,
            "byteLength" : 56304,
            "byteOffset" : 2662104
        },
        {
            "buffer" : 0,
            "byteLength" : 9384,
            "byteOffset" : 2718408
        }
    ],
    "buffers" : [
        {
            "byteLength" : 2727792,
            "uri" : "data:application/octet-stream;base64,"
        }
    ]
}
