{"asset":{"version":"2.0","generator":"babylon.js glTF exporter for 3dsmax 2 v20200527.2"},"extensionsUsed":["KHR_texture_transform"],"extensionsRequired":["KHR_texture_transform"],"scene":0,"scenes":[{"nodes":[0,1,2,3]}],"nodes":[{"mesh":0,"translation":[0.0113549074,0.0132189309,0.0323082432],"rotation":[-1.0,-2.90572643E-07,1.19252519E-08,1.02917227E-06],"scale":[1.0,-1.0,1.0],"name":"Ring"},{"mesh":1,"translation":[0.0197213478,0.0198844075,0.03166032],"rotation":[0.021372743,0.04378732,0.897589743,0.438130766],"scale":[0.0179060809,-0.0179060809,0.0179060921],"name":"Gem_bottom"},{"mesh":2,"translation":[0.0113619305,0.0240190327,0.0329680257],"rotation":[-1.955521E-08,-0.998812258,-0.0487249419,4.008627E-07],"scale":[0.01790608,0.0179060865,0.0179060865],"name":"Gem_top"},{"name":"Default light"}],"meshes":[{"primitives":[{"attributes":{"POSITION":1,"NORMAL":2,"TEXCOORD_0":3},"indices":0,"material":0}],"name":"Ring"},{"primitives":[{"attributes":{"POSITION":5,"NORMAL":6,"TEXCOORD_0":7},"indices":4,"material":1}],"name":"Gem_bottom"},{"primitives":[{"attributes":{"POSITION":9,"NORMAL":10,"TEXCOORD_0":11},"indices":8,"material":2}],"name":"Gem_top"}],"accessors":[{"bufferView":0,"componentType":5123,"count":3570,"type":"SCALAR","name":"accessorIndices"},{"bufferView":1,"componentType":5126,"count":3570,"max":[0.0114390561,0.0112632569,0.00141880137],"min":[-0.0114390608,-0.0112632513,-0.001418789],"type":"VEC3","name":"accessorPositions"},{"bufferView":1,"byteOffset":42840,"componentType":5126,"count":3570,"type":"VEC3","name":"accessorNormals"},{"bufferView":2,"componentType":5126,"count":3570,"type":"VEC2","name":"accessorUVs"},{"bufferView":0,"byteOffset":7140,"componentType":5123,"count":3264,"type":"SCALAR","name":"accessorIndices"},{"bufferView":1,"byteOffset":85680,"componentType":5126,"count":3264,"max":[0.6218184,0.0260491166,0.105507605],"min":[-0.0283123832,-0.773587,-0.102764823],"type":"VEC3","name":"accessorPositions"},{"bufferView":1,"byteOffset":124848,"componentType":5126,"count":3264,"type":"VEC3","name":"accessorNormals"},{"bufferView":2,"byteOffset":28560,"componentType":5126,"count":3264,"type":"VEC2","name":"accessorUVs"},{"bufferView":0,"byteOffset":13668,"componentType":5123,"count":4692,"type":"SCALAR","name":"accessorIndices"},{"bufferView":1,"byteOffset":164016,"componentType":5126,"count":4692,"max":[0.5048555,0.0344556347,0.105507605],"min":[-0.5048557,-0.2435117,-0.0516556352],"type":"VEC3","name":"accessorPositions"},{"bufferView":1,"byteOffset":220320,"componentType":5126,"count":4692,"type":"VEC3","name":"accessorNormals"},{"bufferView":2,"byteOffset":54672,"componentType":5126,"count":4692,"type":"VEC2","name":"accessorUVs"}],"bufferViews":[{"buffer":0,"byteLength":23052,"name":"bufferViewScalar"},{"buffer":0,"byteOffset":23052,"byteLength":276624,"byteStride":12,"name":"bufferViewFloatVec3"},{"buffer":0,"byteOffset":299676,"byteLength":92208,"byteStride":8,"name":"bufferViewFloatVec2"}],"buffers":[{"uri":"Ring_1010130_Test.bin","byteLength":391884}],"materials":[{"pbrMetallicRoughness":{"baseColorTexture":{"index":1,"extensions":{"KHR_texture_transform":{"offset":[0.0,0.0],"scale":[1.0,1.0],"texCoord":0}}},"metallicFactor":0.0,"roughnessFactor":0.165830582},"normalTexture":{"index":0,"extensions":{"KHR_texture_transform":{"offset":[0.0,0.0],"scale":[1.0,1.0],"texCoord":0}}},"name":"chrome"},{"pbrMetallicRoughness":{"metallicFactor":0.0,"roughnessFactor":0.165830582},"name":"gem_bottom"},{"pbrMetallicRoughness":{"metallicFactor":0.0,"roughnessFactor":0.165830582},"name":"gem_top"}],"textures":[{"sampler":0,"source":0,"name":"1010130_Normal.png"},{"sampler":0,"source":1,"name":"1010130_Metall.jpg"}],"images":[{"uri":"./1010130_Normal.png"},{"uri":"./1010130_Metall.jpg"}],"samplers":[{"magFilter":9729,"minFilter":9987}]}