{
    "asset" : {
        "generator" : "Khronos glTF Blender I/O v1.1.46",
        "version" : "2.0"
    },
    "extensionsUsed" : [
        "KHR_lights_punctual"
    ],
    "extensionsRequired" : [
        "KHR_lights_punctual"
    ],
    "extensions" : {
        "KHR_lights_punctual" : {
            "lights" : [
                {
                    "color" : [
                        1,
                        1,
                        1
                    ],
                    "intensity" : 1000,
                    "type" : "point",
                    "name" : "Light"
                }
            ]
        }
    },
    "scene" : 0,
    "scenes" : [
        {
            "name" : "Scene",
            "nodes" : [
                1,
                2,
                3,
                4,
                5,
                6,
                7,
                8
            ]
        }
    ],
    "nodes" : [
        {
            "extensions" : {
                "KHR_lights_punctual" : {
                    "light" : 0
                }
            },
            "name" : "Light_Orientation",
            "rotation" : [
                -0.7071067690849304,
                0,
                0,
                0.7071067690849304
            ]
        },
        {
            "children" : [
                0
            ],
            "name" : "Light",
            "rotation" : [
                0.16907575726509094,
                0.7558803558349609,
                -0.27217137813568115,
                0.570947527885437
            ],
            "translation" : [
                4.076245307922363,
                5.903861999511719,
                -1.0054539442062378
            ]
        },
        {
            "name" : "Camera",
            "rotation" : [
                0.483536034822464,
                0.33687159419059753,
                -0.20870360732078552,
                0.7804827094078064
            ],
            "translation" : [
                7.358891487121582,
                4.958309173583984,
                6.925790786743164
            ]
        },
        {
            "name" : "Particle View 001",
            "rotation" : [
                0.7071068286895752,
                0,
                0,
                0.7071067094802856
            ]
        },
        {
            "name" : "Default light",
            "rotation" : [
                0.7071068286895752,
                0,
                0,
                0.7071067094802856
            ]
        },
        {
            "mesh" : 0,
            "name" : "Ring",
            "rotation" : [
                0.00019037393212784082,
                -0.7071060538291931,
                -0.7071074843406677,
                0.0001903912052512169
            ],
            "scale" : [
                -1.0000001192092896,
                -1.0000001192092896,
                -1.000000238418579
            ],
            "translation" : [
                0.011699133552610874,
                0.013688183389604092,
                0.021964985877275467
            ]
        },
        {
            "mesh" : 1,
            "name" : "Prongs",
            "rotation" : [
                -0.3096736669540405,
                0.6356902718544006,
                -0.6356903910636902,
                0.30967408418655396
            ],
            "scale" : [
                0.1619684398174286,
                0.1619684249162674,
                0.1619684398174286
            ],
            "translation" : [
                0.002871626755222678,
                0.020366603508591652,
                0.02077331580221653
            ]
        },
        {
            "mesh" : 2,
            "name" : "Gem_top",
            "rotation" : [
                -0.2955438494682312,
                0.6098179817199707,
                -0.6617544293403625,
                0.3207130432128906
            ],
            "scale" : [
                0.8270018100738525,
                0.8270019888877869,
                0.8270015716552734
            ],
            "translation" : [
                0.0028892485424876213,
                0.02070266753435135,
                0.021340645849704742
            ]
        },
        {
            "mesh" : 3,
            "name" : "Gem_bottom",
            "rotation" : [
                0.0062522306106984615,
                0.6715050339698792,
                -0.7409101128578186,
                -0.009702254086732864
            ],
            "scale" : [
                -0.02008836157619953,
                -0.02008836530148983,
                -0.020088352262973785
            ],
            "translation" : [
                0.011703492142260075,
                0.025004051625728607,
                0.021379107609391212
            ]
        }
    ],
    "materials" : [
        {
            "emissiveFactor" : [
                0,
                0,
                0
            ],
            "name" : "ring",
            "normalTexture" : {
                "index" : 0,
                "scale" : 0.03999999910593033,
                "texCoord" : 0
            },
            "pbrMetallicRoughness" : {
                "baseColorFactor" : [
                    0.9075471758842468,
                    0.9157501459121704,
                    1,
                    1
                ],
                "metallicFactor" : 1,
                "roughnessFactor" : 0
            }
        },
        {
            "emissiveFactor" : [
                0,
                0,
                0
            ],
            "name" : "prong",
            "pbrMetallicRoughness" : {
                "baseColorFactor" : [
                    0.9075471758842468,
                    0.9239933490753174,
                    1,
                    1
                ],
                "metallicFactor" : 1,
                "roughnessFactor" : 0
            }
        },
        {
            "alphaMode" : "BLEND",
            "emissiveFactor" : [
                0.019917838275432587,
                0.019917838275432587,
                0.06772459298372269
            ],
            "name" : "gem_top",
            "normalTexture" : {
                "index" : 1,
                "scale" : 0.9100000262260437,
                "texCoord" : 0
            },
            "pbrMetallicRoughness" : {
                "baseColorFactor" : [
                    0.8122414946556091,
                    0.9406006932258606,
                    1,
                    0.8999999761581421
                ],
                "baseColorTexture" : {
                    "index" : 2,
                    "texCoord" : 0
                },
                "metallicFactor" : 1,
                "roughnessFactor" : 0.3100000023841858
            }
        },
        {
            "emissiveFactor" : [
                0,
                0,
                0
            ],
            "name" : "gem_bottom",
            "pbrMetallicRoughness" : {
                "baseColorFactor" : [
                    1,
                    0.9075471758842468,
                    0.9658146500587463,
                    1
                ],
                "metallicFactor" : 1,
                "roughnessFactor" : 0.3199999928474426
            }
        }
    ],
    "meshes" : [
        {
            "name" : "Mesh_0",
            "primitives" : [
                {
                    "attributes" : {
                        "POSITION" : 0,
                        "NORMAL" : 1,
                        "TEXCOORD_0" : 2
                    },
                    "indices" : 3,
                    "material" : 0
                }
            ]
        },
        {
            "name" : "Mesh_1",
            "primitives" : [
                {
                    "attributes" : {
                        "POSITION" : 4,
                        "NORMAL" : 5
                    },
                    "indices" : 6,
                    "material" : 1
                }
            ]
        },
        {
            "name" : "Mesh_2",
            "primitives" : [
                {
                    "attributes" : {
                        "POSITION" : 7,
                        "NORMAL" : 8,
                        "TEXCOORD_0" : 9
                    },
                    "indices" : 10,
                    "material" : 2
                }
            ]
        },
        {
            "name" : "Mesh_3",
            "primitives" : [
                {
                    "attributes" : {
                        "POSITION" : 11,
                        "NORMAL" : 12
                    },
                    "indices" : 13,
                    "material" : 3
                }
            ]
        }
    ],
    "textures" : [
        {
            "source" : 0
        },
        {
            "source" : 1
        },
        {
            "source" : 2
        }
    ],
    "images" : [
        {
            "bufferView" : 4,
            "mimeType" : "image/png",
            "name" : "Image_1"
        },
        {
            "bufferView" : 12,
            "mimeType" : "image/png",
            "name" : "Image_2"
        },
        {
            "bufferView" : 13,
            "mimeType" : "image/png",
            "name" : "Image_0"
        }
    ],
    "accessors" : [
        {
            "bufferView" : 0,
            "componentType" : 5126,
            "count" : 4038,
            "max" : [
                0.011439056135714054,
                0.0014188013738021255,
                0.011263251304626465
            ],
            "min" : [
                -0.011439060792326927,
                -0.0014187890337780118,
                -0.011263256892561913
            ],
            "type" : "VEC3"
        },
        {
            "bufferView" : 1,
            "componentType" : 5126,
            "count" : 4038,
            "type" : "VEC3"
        },
        {
            "bufferView" : 2,
            "componentType" : 5126,
            "count" : 4038,
            "type" : "VEC2"
        },
        {
            "bufferView" : 3,
            "componentType" : 5123,
            "count" : 4038,
            "type" : "SCALAR"
        },
        {
            "bufferView" : 5,
            "componentType" : 5126,
            "count" : 4686,
            "max" : [
                0.0026852914597839117,
                0.0012120294850319624,
                0.08850325644016266
            ],
            "min" : [
                -0.07097513973712921,
                -0.015846285969018936,
                -0.0013728810008615255
            ],
            "type" : "VEC3"
        },
        {
            "bufferView" : 6,
            "componentType" : 5126,
            "count" : 4686,
            "type" : "VEC3"
        },
        {
            "bufferView" : 7,
            "componentType" : 5123,
            "count" : 4686,
            "type" : "SCALAR"
        },
        {
            "bufferView" : 8,
            "componentType" : 5126,
            "count" : 4692,
            "max" : [
                0.000686597777530551,
                0.002034536562860012,
                0.017438482493162155
            ],
            "min" : [
                -0.013752734288573265,
                -0.0022299422416836023,
                -0.00010428937093820423
            ],
            "type" : "VEC3"
        },
        {
            "bufferView" : 9,
            "componentType" : 5126,
            "count" : 4692,
            "type" : "VEC3"
        },
        {
            "bufferView" : 10,
            "componentType" : 5126,
            "count" : 4692,
            "type" : "VEC2"
        },
        {
            "bufferView" : 11,
            "componentType" : 5123,
            "count" : 4692,
            "type" : "SCALAR"
        },
        {
            "bufferView" : 14,
            "componentType" : 5126,
            "count" : 3264,
            "max" : [
                0.4579595625400543,
                0.09007100760936737,
                0.00030154420528560877
            ],
            "min" : [
                -0.44765007495880127,
                -0.05363317206501961,
                -0.25401413440704346
            ],
            "type" : "VEC3"
        },
        {
            "bufferView" : 15,
            "componentType" : 5126,
            "count" : 3264,
            "type" : "VEC3"
        },
        {
            "bufferView" : 16,
            "componentType" : 5123,
            "count" : 3264,
            "type" : "SCALAR"
        }
    ],
    "bufferViews" : [
        {
            "buffer" : 0,
            "byteLength" : 48456,
            "byteOffset" : 0
        },
        {
            "buffer" : 0,
            "byteLength" : 48456,
            "byteOffset" : 48456
        },
        {
            "buffer" : 0,
            "byteLength" : 32304,
            "byteOffset" : 96912
        },
        {
            "buffer" : 0,
            "byteLength" : 8076,
            "byteOffset" : 129216
        },
        {
            "buffer" : 0,
            "byteLength" : 1372113,
            "byteOffset" : 137292
        },
        {
            "buffer" : 0,
            "byteLength" : 56232,
            "byteOffset" : 1509408
        },
        {
            "buffer" : 0,
            "byteLength" : 56232,
            "byteOffset" : 1565640
        },
        {
            "buffer" : 0,
            "byteLength" : 9372,
            "byteOffset" : 1621872
        },
        {
            "buffer" : 0,
            "byteLength" : 56304,
            "byteOffset" : 1631244
        },
        {
            "buffer" : 0,
            "byteLength" : 56304,
            "byteOffset" : 1687548
        },
        {
            "buffer" : 0,
            "byteLength" : 37536,
            "byteOffset" : 1743852
        },
        {
            "buffer" : 0,
            "byteLength" : 9384,
            "byteOffset" : 1781388
        },
        {
            "buffer" : 0,
            "byteLength" : 182639,
            "byteOffset" : 1790772
        },
        {
            "buffer" : 0,
            "byteLength" : 125226,
            "byteOffset" : 1973412
        },
        {
            "buffer" : 0,
            "byteLength" : 39168,
            "byteOffset" : 2098640
        },
        {
            "buffer" : 0,
            "byteLength" : 39168,
            "byteOffset" : 2137808
        },
        {
            "buffer" : 0,
            "byteLength" : 6528,
            "byteOffset" : 2176976
        }
    ],
    "buffers" : [
        {
            "byteLength" : 2183504,
            "uri" : "data:application/octet-stream;base64,"
        }
    ]
}
